<?xml version="1.0"?>
<svg width="256" height="256" xmlns="http://www.w3.org/2000/svg" xmlns:svg="http://www.w3.org/2000/svg">
 <g class="layer">
  <title>Layer 1</title>
  <g fill="none" id="svg_1">
   <path d="m71.8,214.24l0,-115.25l-38.31,0l0,115.25l38.31,0zm-19.15,-130.99c13.36,0 21.67,-8.85 21.67,-19.91c-0.25,-11.31 -8.31,-19.91 -21.42,-19.91c-13.11,0 -21.67,8.6 -21.67,19.91c0,11.06 8.31,19.91 21.17,19.91l0.25,0zm40.35,130.99l38.31,0l0,-64.36c0,-3.44 0.25,-6.89 1.26,-9.34c2.77,-6.89 9.07,-14.02 19.65,-14.02c13.86,0 19.41,10.57 19.41,26.07l0,61.65l38.3,0l0,-66.08c0,-35.4 -18.89,-51.88 -44.1,-51.88c-20.66,0 -29.73,11.55 -34.78,19.42l0.26,0l0,-16.71l-38.31,0c0.5,10.81 0,115.25 0,115.25z" fill="#ffffff" id="svg_3"/>
  </g>
 </g>

</svg>